<svg width="25" height="26" viewBox="0 0 25 26" fill="none" xmlns="http://www.w3.org/2000/svg">
<path d="M12.6268 2.13965C15.3453 2.13965 15.6845 2.15008 16.7511 2.20223C17.8168 2.25438 18.5422 2.42855 19.1805 2.68721C19.8409 2.95213 20.3973 3.31092 20.9536 3.88977C21.4624 4.41116 21.856 5.04184 22.1072 5.73794C22.3544 6.40232 22.5225 7.15952 22.5725 8.2703C22.6195 9.38212 22.6325 9.73569 22.6325 12.5695C22.6325 15.4033 22.6225 15.7568 22.5725 16.8687C22.5225 17.9794 22.3544 18.7356 22.1072 19.401C21.8568 20.0975 21.463 20.7283 20.9536 21.2492C20.4532 21.7793 19.8482 22.1897 19.1805 22.4517C18.5432 22.7094 17.8168 22.8846 16.7511 22.9367C15.6845 22.9857 15.3453 22.9993 12.6268 22.9993C9.90819 22.9993 9.56899 22.9889 8.50237 22.9367C7.43676 22.8846 6.71134 22.7094 6.07297 22.4517C5.40491 22.1904 4.79976 21.78 4.29994 21.2492C3.79105 20.7279 3.39735 20.0972 3.14628 19.401C2.89813 18.7366 2.73104 17.9794 2.68101 16.8687C2.63398 15.7568 2.62097 15.4033 2.62097 12.5695C2.62097 9.73569 2.63098 9.38212 2.68101 8.2703C2.73104 7.15848 2.89813 6.40336 3.14628 5.73794C3.39666 5.04141 3.79045 4.41056 4.29994 3.88977C4.7999 3.35914 5.40501 2.94872 6.07297 2.68721C6.71134 2.42855 7.43576 2.25438 8.50237 2.20223C9.56899 2.15321 9.90819 2.13965 12.6268 2.13965ZM12.6268 7.35456C11.2999 7.35456 10.0274 7.90399 9.08918 8.88198C8.15095 9.85996 7.62387 11.1864 7.62387 12.5695C7.62387 13.9526 8.15095 15.279 9.08918 16.257C10.0274 17.235 11.2999 17.7844 12.6268 17.7844C13.9536 17.7844 15.2261 17.235 16.1643 16.257C17.1026 15.279 17.6297 13.9526 17.6297 12.5695C17.6297 11.1864 17.1026 9.85996 16.1643 8.88198C15.2261 7.90399 13.9536 7.35456 12.6268 7.35456ZM19.1305 7.09382C19.1305 6.74805 18.9987 6.41644 18.7642 6.17194C18.5296 5.92744 18.2115 5.79009 17.8798 5.79009C17.5481 5.79009 17.23 5.92744 16.9954 6.17194C16.7608 6.41644 16.6291 6.74805 16.6291 7.09382C16.6291 7.43959 16.7608 7.7712 16.9954 8.01569C17.23 8.26019 17.5481 8.39755 17.8798 8.39755C18.2115 8.39755 18.5296 8.26019 18.7642 8.01569C18.9987 7.7712 19.1305 7.43959 19.1305 7.09382ZM12.6268 9.44053C13.4229 9.44053 14.1864 9.77018 14.7493 10.357C15.3122 10.9438 15.6285 11.7396 15.6285 12.5695C15.6285 13.3993 15.3122 14.1952 14.7493 14.782C14.1864 15.3688 13.4229 15.6984 12.6268 15.6984C11.8306 15.6984 11.0671 15.3688 10.5042 14.782C9.94128 14.1952 9.62502 13.3993 9.62502 12.5695C9.62502 11.7396 9.94128 10.9438 10.5042 10.357C11.0671 9.77018 11.8306 9.44053 12.6268 9.44053Z" fill="#3F729B"/>
</svg>
