<svg width="25" height="26" viewBox="0 0 25 26" fill="none" xmlns="http://www.w3.org/2000/svg">
<path d="M7.62573 5.26865C7.62546 5.82188 7.41437 6.35235 7.0389 6.74334C6.66342 7.13434 6.15431 7.35385 5.62357 7.35357C5.09283 7.3533 4.58393 7.13326 4.20883 6.74187C3.83373 6.35048 3.62315 5.8198 3.62341 5.26656C3.62368 4.71333 3.83477 4.18287 4.21025 3.79187C4.58572 3.40087 5.09483 3.18136 5.62557 3.18164C6.15631 3.18192 6.66521 3.40195 7.04031 3.79334C7.41541 4.18473 7.62599 4.71542 7.62573 5.26865ZM7.68576 8.89823H3.68345V21.9564H7.68576V8.89823ZM14.0094 8.89823H10.0271V21.9564H13.9694V15.104C13.9694 11.2867 18.7422 10.932 18.7422 15.104V21.9564H22.6944V13.6855C22.6944 7.25032 15.6304 7.4902 13.9694 10.6504L14.0094 8.89823Z" fill="#134DA5"/>
</svg>
