<svg width="25" height="26" viewBox="0 0 25 26" fill="none" xmlns="http://www.w3.org/2000/svg">
<path d="M22.8872 5.9529C22.1233 6.3051 21.3133 6.53642 20.4838 6.63918C21.3581 6.09415 22.0124 5.23638 22.3249 4.22572C21.5044 4.73469 20.6049 5.09139 19.6674 5.28434C19.0376 4.58198 18.2029 4.11616 17.2929 3.95932C16.383 3.80248 15.4489 3.9634 14.6357 4.41705C13.8226 4.87071 13.176 5.59169 12.7965 6.46791C12.417 7.34413 12.3259 8.3265 12.5372 9.26228C10.8734 9.17535 9.24567 8.72465 7.75977 7.93943C6.27386 7.15421 4.96299 6.05203 3.91225 4.70445C3.54033 5.37034 3.34488 6.12731 3.34593 6.89784C3.34593 8.41016 4.08435 9.74622 5.207 10.5285C4.54263 10.5067 3.89287 10.3196 3.31191 9.98298V10.0372C3.31211 11.0444 3.64647 12.0206 4.2583 12.8001C4.87013 13.5797 5.72178 14.1147 6.66885 14.3145C6.05211 14.4887 5.40542 14.5144 4.77775 14.3896C5.04478 15.2565 5.56522 16.0148 6.26621 16.5581C6.9672 17.1014 7.81364 17.4025 8.68701 17.4194C7.81899 18.1301 6.82512 18.6554 5.7622 18.9653C4.69929 19.2753 3.58819 19.3638 2.49243 19.2259C4.40524 20.5082 6.63192 21.1889 8.90614 21.1867C16.6036 21.1867 20.813 14.5398 20.813 8.77521C20.813 8.58747 20.808 8.39765 20.8 8.212C21.6194 7.59473 22.3265 6.83006 22.8882 5.95394L22.8872 5.9529Z" fill="#00ACEE"/>
</svg>
