<svg width="25" height="26" viewBox="0 0 25 26" fill="none" xmlns="http://www.w3.org/2000/svg">
<path d="M22.2059 6.83096C22.6632 8.68955 22.6632 12.5694 22.6632 12.5694C22.6632 12.5694 22.6632 16.4493 22.2059 18.3079C21.9518 19.3353 21.2083 20.1436 20.2668 20.4169C18.5568 20.9133 12.6574 20.9133 12.6574 20.9133C12.6574 20.9133 6.76099 20.9133 5.048 20.4169C4.10245 20.1394 3.36002 19.3321 3.10888 18.3079C2.65161 16.4493 2.65161 12.5694 2.65161 12.5694C2.65161 12.5694 2.65161 8.68955 3.10888 6.83096C3.36302 5.80362 4.10645 4.99531 5.048 4.72205C6.76099 4.22559 12.6574 4.22559 12.6574 4.22559C12.6574 4.22559 18.5568 4.22559 20.2668 4.72205C21.2123 4.99948 21.9548 5.80675 22.2059 6.83096ZM10.6562 16.2199L16.6597 12.5694L10.6562 8.91901V16.2199Z" fill="#FF0000"/>
</svg>
