<svg xmlns="http://www.w3.org/2000/svg" xmlns:xlink="http://www.w3.org/1999/xlink" width="500" zoomAndPan="magnify" viewBox="0 0 375 374.999991" height="500" preserveAspectRatio="xMidYMid meet" version="1.0"><defs><g/><clipPath id="aa0db37aab"><path d="M 188 98.265625 L 192 98.265625 L 192 101 L 188 101 Z M 188 98.265625 " clip-rule="nonzero"/></clipPath><clipPath id="bad29a556c"><path d="M 185 98.265625 L 189 98.265625 L 189 101 L 185 101 Z M 185 98.265625 " clip-rule="nonzero"/></clipPath><clipPath id="2be05f1a47"><path d="M 161.714844 119 L 163 119 L 163 128 L 161.714844 128 Z M 161.714844 119 " clip-rule="nonzero"/></clipPath><clipPath id="fbfe067df2"><path d="M 187 155 L 189 155 L 189 155.265625 L 187 155.265625 Z M 187 155 " clip-rule="nonzero"/></clipPath><clipPath id="ffedc2ff53"><path d="M 207 98.265625 L 215 98.265625 L 215 105 L 207 105 Z M 207 98.265625 " clip-rule="nonzero"/></clipPath><clipPath id="8e5ccba7f0"><path d="M 211 128 L 217.214844 128 L 217.214844 136 L 211 136 Z M 211 128 " clip-rule="nonzero"/></clipPath><clipPath id="58203487a4"><path d="M 155 146 L 237.378906 146 L 237.378906 196 L 155 196 Z M 155 146 " clip-rule="nonzero"/></clipPath><clipPath id="dc4571ab89"><path d="M 121.128906 80.464844 L 229 80.464844 L 229 201.214844 L 121.128906 201.214844 Z M 121.128906 80.464844 " clip-rule="nonzero"/></clipPath></defs><g clip-path="url(#aa0db37aab)"><path fill="#689ac5" d="M 189.09375 99.878906 C 189.695312 100.023438 190.492188 100.214844 191.089844 100.359375 C 191.316406 100.136719 191.609375 99.835938 191.8125 99.59375 C 191.269531 99.21875 190.71875 98.925781 190.167969 98.71875 C 189.691406 98.660156 189.058594 98.589844 188.585938 98.542969 C 188.492188 98.664062 188.351562 98.816406 188.238281 98.921875 C 188.519531 99.160156 188.808594 99.480469 189.09375 99.878906 " fill-opacity="1" fill-rule="nonzero"/></g><g clip-path="url(#bad29a556c)"><path fill="#274082" d="M 185.617188 100.339844 C 186.074219 100.492188 186.679688 100.691406 187.140625 100.835938 C 187.515625 100.578125 188.015625 100.234375 188.382812 99.964844 C 188.160156 99.558594 187.945312 99.230469 187.734375 98.984375 C 187.410156 98.921875 186.976562 98.835938 186.652344 98.773438 C 186.390625 98.917969 186.039062 99.105469 185.773438 99.246094 C 185.707031 99.53125 185.65625 99.898438 185.617188 100.339844 " fill-opacity="1" fill-rule="nonzero"/></g><path fill="#69a2cd" d="M 182.273438 100.871094 C 182.558594 101.042969 182.945312 101.265625 183.242188 101.414062 C 183.746094 101.125 184.414062 100.734375 184.914062 100.441406 C 185.019531 99.992188 185.140625 99.617188 185.277344 99.320312 C 185.113281 99.25 184.898438 99.148438 184.746094 99.058594 C 184.34375 99.222656 183.804688 99.449219 183.402344 99.625 C 183.003906 99.960938 182.625 100.378906 182.273438 100.871094 " fill-opacity="1" fill-rule="nonzero"/><path fill="#69a2cd" d="M 179.28125 101.441406 C 179.371094 101.636719 179.515625 101.886719 179.652344 102.050781 C 180.242188 101.730469 181.03125 101.300781 181.625 100.984375 C 182.039062 100.484375 182.480469 100.054688 182.945312 99.707031 C 182.929688 99.605469 182.941406 99.457031 182.992188 99.367188 C 182.476562 99.5625 181.792969 99.824219 181.285156 100.027344 C 180.582031 100.421875 179.914062 100.894531 179.28125 101.441406 " fill-opacity="1" fill-rule="nonzero"/><path fill="#69a2cd" d="M 176.859375 102.015625 C 176.761719 102.214844 176.644531 102.492188 176.605469 102.707031 C 177.242188 102.359375 178.089844 101.898438 178.734375 101.558594 C 179.417969 101.003906 180.140625 100.519531 180.894531 100.113281 C 181.066406 99.96875 181.308594 99.796875 181.503906 99.6875 C 180.917969 99.90625 180.144531 100.203125 179.566406 100.433594 C 178.625 100.886719 177.71875 101.414062 176.859375 102.015625 " fill-opacity="1" fill-rule="nonzero"/><path fill="#69a2cd" d="M 175.265625 102.539062 C 174.984375 102.769531 174.617188 103.082031 174.367188 103.339844 C 174.988281 102.96875 175.820312 102.480469 176.453125 102.128906 C 177.351562 101.519531 178.296875 100.980469 179.28125 100.515625 C 179.613281 100.351562 180.0625 100.140625 180.40625 100 C 179.8125 100.230469 179.023438 100.550781 178.4375 100.808594 C 177.332031 101.3125 176.273438 101.890625 175.265625 102.539062 " fill-opacity="1" fill-rule="nonzero"/><path fill="#69a2cd" d="M 175.066406 102.632812 C 175.652344 102.257812 176.253906 101.90625 176.871094 101.578125 C 176.007812 102.078125 174.863281 102.761719 174.03125 103.3125 L 173.886719 103.410156 C 174.238281 103.175781 174.707031 102.859375 175.066406 102.632812 " fill-opacity="1" fill-rule="nonzero"/><path fill="#3a6ab9" d="M 200.222656 103.863281 C 201.148438 104.183594 202.382812 104.613281 203.304688 104.9375 C 203.894531 104.457031 204.679688 103.816406 205.261719 103.328125 C 204.816406 102.460938 204.347656 101.652344 203.863281 100.910156 C 203.019531 100.652344 201.898438 100.308594 201.054688 100.054688 C 200.554688 100.457031 199.882812 100.992188 199.375 101.386719 C 199.660156 102.152344 199.945312 102.976562 200.222656 103.863281 " fill-opacity="1" fill-rule="nonzero"/><path fill="#274082" d="M 185.734375 107.757812 C 186.566406 108.074219 187.679688 108.488281 188.515625 108.796875 C 189.222656 108.28125 190.160156 107.589844 190.863281 107.070312 C 190.632812 106.179688 190.398438 105.34375 190.164062 104.574219 C 189.417969 104.328125 188.421875 103.996094 187.679688 103.742188 C 187.054688 104.179688 186.222656 104.757812 185.597656 105.191406 C 185.628906 105.988281 185.675781 106.84375 185.734375 107.757812 " fill-opacity="1" fill-rule="nonzero"/><path fill="#3881b6" d="M 179.535156 108.746094 C 180.230469 109.0625 181.160156 109.480469 181.859375 109.785156 C 182.632812 109.234375 183.660156 108.5 184.433594 107.953125 C 184.417969 107.03125 184.421875 106.167969 184.4375 105.363281 C 183.828125 105.113281 183.019531 104.78125 182.414062 104.523438 C 181.714844 104.984375 180.777344 105.601562 180.078125 106.070312 C 179.867188 106.902344 179.6875 107.800781 179.535156 108.746094 " fill-opacity="1" fill-rule="nonzero"/><path fill="#3a6ab9" d="M 173.988281 109.804688 C 174.503906 110.136719 175.191406 110.566406 175.71875 110.871094 C 176.503906 110.292969 177.546875 109.527344 178.335938 108.960938 C 178.527344 108.003906 178.753906 107.101562 179.011719 106.257812 C 178.570312 106.003906 177.984375 105.660156 177.558594 105.382812 C 176.832031 105.867188 175.863281 106.515625 175.140625 107.011719 C 174.714844 107.886719 174.328125 108.820312 173.988281 109.804688 " fill-opacity="1" fill-rule="nonzero"/><path fill="#689ac5" d="M 169.5 110.867188 C 169.789062 111.21875 170.195312 111.675781 170.519531 111.992188 C 171.25 111.394531 172.230469 110.605469 172.972656 110.023438 C 173.34375 109.035156 173.769531 108.089844 174.238281 107.207031 C 173.984375 106.9375 173.660156 106.570312 173.449219 106.269531 C 172.75 106.769531 171.828125 107.441406 171.144531 107.957031 C 170.539062 108.875 169.988281 109.847656 169.5 110.867188 " fill-opacity="1" fill-rule="nonzero"/><path fill="#689ac5" d="M 166.539062 111.84375 C 166.554688 112.214844 166.605469 112.710938 166.695312 113.074219 C 167.296875 112.464844 168.117188 111.664062 168.746094 111.082031 C 169.261719 110.054688 169.839844 109.074219 170.476562 108.144531 C 170.429688 107.84375 170.394531 107.429688 170.421875 107.125 C 169.839844 107.625 169.070312 108.300781 168.511719 108.824219 C 167.789062 109.78125 167.128906 110.789062 166.539062 111.84375 " fill-opacity="1" fill-rule="nonzero"/><path fill="#274082" d="M 164.824219 113.957031 C 165.210938 113.359375 165.746094 112.578125 166.175781 112.015625 C 166.78125 110.957031 167.453125 109.941406 168.1875 108.976562 C 168.394531 108.617188 168.695312 108.152344 168.945312 107.820312 L 168.542969 108.277344 L 167.601562 109.4375 C 165.945312 111.78125 165.914062 111.828125 165.191406 113.144531 C 165.082031 113.386719 164.914062 113.703125 164.824219 113.957031 " fill-opacity="1" fill-rule="nonzero"/><path fill="#69a2cd" d="M 194.894531 118.441406 C 195.949219 118.894531 197.359375 119.503906 198.410156 119.96875 C 199.238281 119.3125 200.339844 118.4375 201.164062 117.777344 C 200.894531 116.546875 200.59375 115.359375 200.265625 114.214844 C 199.238281 113.792969 197.863281 113.238281 196.828125 112.828125 C 196.042969 113.4375 194.996094 114.25 194.207031 114.855469 C 194.449219 116.007812 194.675781 117.207031 194.894531 118.441406 " fill-opacity="1" fill-rule="nonzero"/><path fill="#4186b9" d="M 186.871094 119.5 C 187.90625 119.933594 189.289062 120.507812 190.320312 120.945312 C 191.199219 120.25 192.371094 119.328125 193.253906 118.640625 C 193.050781 117.402344 192.839844 116.203125 192.621094 115.050781 C 191.617188 114.65625 190.28125 114.132812 189.277344 113.742188 C 188.429688 114.378906 187.300781 115.234375 186.457031 115.878906 C 186.582031 117.046875 186.71875 118.253906 186.871094 119.5 " fill-opacity="1" fill-rule="nonzero"/><path fill="#69a2cd" d="M 172.261719 122.046875 C 173.078125 122.46875 174.167969 123.023438 174.992188 123.429688 C 175.785156 122.691406 176.855469 121.714844 177.667969 120.992188 C 177.59375 119.734375 177.558594 118.511719 177.5625 117.320312 C 176.777344 116.949219 175.738281 116.449219 174.964844 116.0625 C 174.171875 116.738281 173.117188 117.644531 172.335938 118.335938 C 172.257812 119.539062 172.230469 120.777344 172.261719 122.046875 " fill-opacity="1" fill-rule="nonzero"/><path fill="#3881b6" d="M 166.675781 123.367188 C 167.292969 123.800781 168.125 124.367188 168.761719 124.773438 C 169.417969 124.027344 170.308594 123.039062 170.996094 122.316406 C 170.976562 121.050781 171.015625 119.808594 171.113281 118.601562 C 170.515625 118.226562 169.726562 117.71875 169.148438 117.316406 C 168.472656 117.996094 167.585938 118.910156 166.941406 119.617188 C 166.78125 120.835938 166.691406 122.089844 166.675781 123.367188 " fill-opacity="1" fill-rule="nonzero"/><path fill="#3881b6" d="M 162.992188 124.578125 C 163.324219 125.042969 163.792969 125.644531 164.175781 126.066406 C 164.625 125.324219 165.242188 124.34375 165.738281 123.632812 C 165.761719 122.351562 165.863281 121.097656 166.035156 119.871094 C 165.667969 119.484375 165.1875 118.953125 164.867188 118.523438 C 164.402344 119.191406 163.800781 120.089844 163.382812 120.785156 C 163.171875 122.027344 163.039062 123.292969 162.992188 124.578125 " fill-opacity="1" fill-rule="nonzero"/><g clip-path="url(#2be05f1a47)"><path fill="#69a2cd" d="M 161.742188 125.5 C 161.769531 125.992188 161.835938 126.644531 161.9375 127.125 C 162.089844 126.417969 162.320312 125.480469 162.539062 124.792969 C 162.589844 123.503906 162.726562 122.234375 162.945312 120.992188 C 162.863281 120.554688 162.78125 119.957031 162.777344 119.507812 C 162.585938 120.097656 162.34375 120.886719 162.207031 121.488281 L 162.203125 121.5 C 162.078125 122.351562 161.898438 123.488281 161.816406 124.347656 L 161.742188 125.5 " fill-opacity="1" fill-rule="nonzero"/></g><path fill="#69a2cd" d="M 188.855469 133.339844 C 189.851562 133.757812 191.175781 134.320312 192.167969 134.746094 C 193.023438 134.070312 194.164062 133.175781 195.027344 132.511719 C 194.914062 131.269531 194.785156 129.996094 194.640625 128.707031 C 193.601562 128.246094 192.21875 127.632812 191.179688 127.179688 C 190.300781 127.890625 189.128906 128.847656 188.257812 129.566406 C 188.453125 130.851562 188.652344 132.109375 188.855469 133.339844 " fill-opacity="1" fill-rule="nonzero"/><path fill="#274082" d="M 199.804688 128.28125 C 200.796875 128.679688 202.125 129.207031 203.117188 129.601562 C 203.886719 128.914062 204.914062 128 205.695312 127.324219 C 205.46875 126.097656 205.25 124.839844 205.039062 123.5625 C 204.007812 123.128906 202.636719 122.550781 201.605469 122.113281 C 200.800781 122.839844 199.734375 123.808594 198.945312 124.550781 C 199.203125 125.820312 199.492188 127.066406 199.804688 128.28125 " fill-opacity="1" fill-rule="nonzero"/><path fill="#69a2cd" d="M 174.730469 135.800781 C 175.660156 136.183594 176.90625 136.695312 177.84375 137.066406 C 178.46875 136.375 179.308594 135.457031 179.957031 134.785156 C 179.625 133.574219 179.320312 132.332031 179.046875 131.0625 C 178.085938 130.648438 176.804688 130.089844 175.84375 129.664062 C 175.175781 130.390625 174.289062 131.367188 173.640625 132.113281 C 173.957031 133.375 174.320312 134.605469 174.730469 135.800781 " fill-opacity="1" fill-rule="nonzero"/><path fill="#3881b6" d="M 169.328125 137.082031 C 170.132812 137.460938 171.207031 137.960938 172.019531 138.324219 C 172.449219 137.636719 173.039062 136.726562 173.503906 136.066406 C 173.078125 134.875 172.699219 133.644531 172.375 132.386719 C 171.542969 131.980469 170.433594 131.433594 169.613281 131.007812 C 169.128906 131.726562 168.496094 132.691406 168.050781 133.4375 C 168.414062 134.6875 168.839844 135.902344 169.328125 137.082031 " fill-opacity="1" fill-rule="nonzero"/><path fill="#69a2cd" d="M 165.765625 138.25 C 166.347656 138.652344 167.132812 139.171875 167.738281 139.53125 C 167.914062 138.863281 168.179688 137.980469 168.421875 137.335938 C 167.921875 136.160156 167.484375 134.949219 167.117188 133.699219 C 166.480469 133.296875 165.636719 132.746094 165.027344 132.304688 C 164.800781 132.996094 164.523438 133.933594 164.367188 134.648438 C 164.757812 135.890625 165.226562 137.09375 165.765625 138.25 " fill-opacity="1" fill-rule="nonzero"/><path fill="#69a2cd" d="M 164.558594 139.144531 C 164.863281 139.574219 165.292969 140.128906 165.644531 140.519531 C 165.519531 139.90625 165.378906 139.082031 165.328125 138.460938 C 164.785156 137.300781 164.3125 136.101562 163.914062 134.863281 C 163.554688 134.429688 163.09375 133.832031 162.789062 133.359375 C 162.855469 134.027344 162.972656 134.914062 163.117188 135.570312 C 163.519531 136.804688 164 137.996094 164.558594 139.144531 " fill-opacity="1" fill-rule="nonzero"/><path fill="#3881b6" d="M 196.84375 144.40625 C 197.460938 144.75 198.273438 145.21875 198.875 145.589844 C 199.613281 145.089844 200.597656 144.421875 201.339844 143.929688 C 201.585938 142.933594 201.796875 141.890625 201.976562 140.808594 C 201.269531 140.378906 200.320312 139.816406 199.601562 139.410156 C 198.796875 139.988281 197.726562 140.761719 196.929688 141.34375 C 196.917969 142.410156 196.890625 143.433594 196.84375 144.40625 " fill-opacity="1" fill-rule="nonzero"/><path fill="#274082" d="M 191.09375 145.164062 C 191.824219 145.480469 192.800781 145.90625 193.527344 146.234375 C 194.164062 145.722656 195.019531 145.046875 195.667969 144.546875 C 195.664062 143.582031 195.640625 142.5625 195.605469 141.503906 C 194.78125 141.113281 193.675781 140.601562 192.839844 140.226562 C 192.125 140.8125 191.171875 141.597656 190.46875 142.195312 C 190.679688 143.234375 190.886719 144.222656 191.09375 145.164062 " fill-opacity="1" fill-rule="nonzero"/><path fill="#3881b6" d="M 185.5625 146.042969 C 186.371094 146.332031 187.445312 146.722656 188.25 147.015625 C 188.746094 146.503906 189.417969 145.828125 189.933594 145.335938 C 189.675781 144.402344 189.417969 143.417969 189.164062 142.386719 C 188.269531 142.035156 187.074219 141.5625 186.175781 141.214844 C 185.59375 141.796875 184.824219 142.582031 184.261719 143.183594 C 184.679688 144.1875 185.113281 145.144531 185.5625 146.042969 " fill-opacity="1" fill-rule="nonzero"/><path fill="#3881b6" d="M 176.613281 147.9375 C 177.40625 148.1875 178.464844 148.523438 179.261719 148.769531 C 179.371094 148.285156 179.546875 147.648438 179.710938 147.183594 C 179.003906 146.332031 178.328125 145.421875 177.6875 144.464844 C 176.824219 144.15625 175.679688 143.746094 174.820312 143.429688 C 174.613281 143.984375 174.359375 144.734375 174.207031 145.308594 C 174.964844 146.242188 175.769531 147.117188 176.613281 147.9375 " fill-opacity="1" fill-rule="nonzero"/><path fill="#69a2cd" d="M 173.972656 148.804688 C 174.644531 149.058594 175.546875 149.390625 176.230469 149.625 C 176.113281 149.183594 175.984375 148.582031 175.941406 148.125 C 175.070312 147.316406 174.238281 146.445312 173.453125 145.519531 C 172.710938 145.226562 171.722656 144.828125 170.988281 144.511719 C 171.035156 145.046875 171.121094 145.761719 171.242188 146.285156 C 172.101562 147.183594 173.015625 148.027344 173.972656 148.804688 " fill-opacity="1" fill-rule="nonzero"/><path fill="#69a2cd" d="M 173.074219 149.464844 C 173.570312 149.734375 174.238281 150.082031 174.75 150.324219 C 174.398438 149.929688 173.949219 149.390625 173.648438 148.957031 C 172.675781 148.1875 171.75 147.347656 170.878906 146.457031 C 170.34375 146.152344 169.632812 145.730469 169.117188 145.394531 C 169.429688 145.898438 169.871094 146.558594 170.234375 147.027344 C 171.128906 147.902344 172.078125 148.714844 173.074219 149.464844 " fill-opacity="1" fill-rule="nonzero"/><path fill="#274082" d="M 194.550781 149.976562 C 194.859375 150.132812 195.269531 150.351562 195.566406 150.527344 C 195.84375 150.277344 196.21875 149.949219 196.507812 149.714844 C 196.617188 149.199219 196.707031 148.609375 196.78125 147.949219 C 196.339844 147.691406 195.75 147.355469 195.300781 147.117188 C 194.910156 147.46875 194.390625 147.949219 194.011719 148.320312 C 194.199219 148.945312 194.378906 149.5 194.550781 149.976562 " fill-opacity="1" fill-rule="nonzero"/><path fill="#69a2cd" d="M 190.414062 152.355469 C 190.964844 152.464844 191.707031 152.609375 192.257812 152.722656 C 192.175781 152.523438 192.089844 152.246094 192.074219 152.035156 C 191.503906 151.621094 190.933594 151.128906 190.375 150.566406 C 189.714844 150.375 188.828125 150.117188 188.167969 149.929688 C 188.101562 150.253906 188.035156 150.691406 188.03125 151.023438 C 188.8125 151.542969 189.605469 151.988281 190.414062 152.355469 " fill-opacity="1" fill-rule="nonzero"/><path fill="#3881b6" d="M 185.828125 154.53125 C 186.460938 154.601562 187.304688 154.6875 187.941406 154.746094 C 187.550781 154.613281 187.039062 154.417969 186.671875 154.242188 C 185.582031 153.941406 184.511719 153.5625 183.46875 153.105469 C 182.769531 152.964844 181.839844 152.765625 181.144531 152.613281 C 181.46875 152.902344 181.917969 153.273438 182.277344 153.519531 C 183.433594 153.933594 184.617188 154.273438 185.828125 154.53125 " fill-opacity="1" fill-rule="nonzero"/><path fill="#274082" d="M 185.441406 154.816406 C 186.03125 154.878906 186.816406 154.953125 187.40625 155 C 186.886719 154.894531 186.199219 154.738281 185.6875 154.597656 C 184.460938 154.351562 183.253906 154.019531 182.082031 153.609375 C 181.46875 153.472656 180.660156 153.285156 180.050781 153.128906 C 180.550781 153.378906 181.21875 153.703125 181.734375 153.917969 C 182.941406 154.296875 184.179688 154.597656 185.441406 154.816406 " fill-opacity="1" fill-rule="nonzero"/><g clip-path="url(#fbfe067df2)"><path fill="#69a2cd" d="M 188.023438 155.269531 L 187.683594 155.238281 L 187.917969 155.257812 L 188.023438 155.269531 " fill-opacity="1" fill-rule="nonzero"/></g><path fill="#3881b6" d="M 193.121094 102.417969 C 193.945312 102.660156 195.042969 102.980469 195.867188 103.226562 C 196.199219 102.890625 196.640625 102.4375 196.949219 102.074219 C 196.3125 101.453125 195.65625 100.902344 194.984375 100.421875 C 194.269531 100.253906 193.3125 100.035156 192.59375 99.878906 C 192.371094 100.136719 192.0625 100.46875 191.820312 100.707031 C 192.261719 101.207031 192.695312 101.777344 193.121094 102.417969 " fill-opacity="1" fill-rule="nonzero"/><path fill="#274082" d="M 188.050781 103.015625 C 188.777344 103.253906 189.746094 103.566406 190.46875 103.800781 C 190.960938 103.421875 191.613281 102.917969 192.097656 102.527344 C 191.726562 101.882812 191.351562 101.300781 190.972656 100.796875 C 190.359375 100.640625 189.539062 100.425781 188.921875 100.265625 C 188.539062 100.550781 188.019531 100.925781 187.628906 101.203125 C 187.761719 101.738281 187.902344 102.34375 188.050781 103.015625 " fill-opacity="1" fill-rule="nonzero"/><path fill="#69a2cd" d="M 183.023438 103.75 C 183.609375 103.992188 184.390625 104.308594 184.980469 104.539062 C 185.589844 104.125 186.402344 103.574219 187.011719 103.15625 C 186.917969 102.476562 186.835938 101.863281 186.765625 101.320312 C 186.292969 101.160156 185.660156 100.941406 185.1875 100.769531 C 184.671875 101.082031 183.984375 101.496094 183.46875 101.808594 C 183.300781 102.386719 183.152344 103.035156 183.023438 103.75 " fill-opacity="1" fill-rule="nonzero"/><path fill="#3881b6" d="M 178.351562 104.5625 C 178.761719 104.820312 179.316406 105.15625 179.742188 105.390625 C 180.425781 104.945312 181.339844 104.351562 182.027344 103.910156 C 182.210938 103.1875 182.417969 102.53125 182.644531 101.941406 C 182.335938 101.773438 181.921875 101.542969 181.625 101.347656 C 181.015625 101.6875 180.207031 102.136719 179.605469 102.480469 C 179.15625 103.109375 178.738281 103.804688 178.351562 104.5625 " fill-opacity="1" fill-rule="nonzero"/><path fill="#3a6ab9" d="M 174.359375 105.40625 C 174.5625 105.6875 174.855469 106.046875 175.097656 106.296875 C 175.804688 105.824219 176.753906 105.195312 177.46875 104.734375 C 177.902344 103.96875 178.371094 103.261719 178.875 102.625 C 178.734375 102.4375 178.554688 102.179688 178.464844 101.964844 C 177.8125 102.324219 176.945312 102.808594 176.300781 103.179688 C 175.609375 103.855469 174.960938 104.601562 174.359375 105.40625 " fill-opacity="1" fill-rule="nonzero"/><path fill="#3881b6" d="M 171.359375 106.226562 C 171.339844 106.515625 171.339844 106.910156 171.386719 107.199219 C 172.0625 106.703125 172.964844 106.054688 173.652344 105.578125 C 174.292969 104.765625 174.984375 104.007812 175.71875 103.320312 C 175.757812 103.09375 175.839844 102.789062 175.941406 102.578125 C 175.300781 102.953125 174.449219 103.460938 173.820312 103.855469 C 172.949219 104.585938 172.128906 105.375 171.359375 106.226562 " fill-opacity="1" fill-rule="nonzero"/><path fill="#3a6ab9" d="M 169.804688 106.910156 C 169.558594 107.226562 169.242188 107.664062 169.039062 108.011719 C 169.59375 107.511719 170.339844 106.855469 170.914062 106.382812 C 171.707031 105.523438 172.554688 104.722656 173.453125 103.984375 C 173.707031 103.714844 174.058594 103.371094 174.339844 103.132812 C 173.792969 103.507812 173.066406 104.019531 172.535156 104.421875 C 171.566406 105.191406 170.65625 106.019531 169.804688 106.910156 " fill-opacity="1" fill-rule="nonzero"/><path fill="#3881b6" d="M 197.253906 111.777344 C 198.277344 112.179688 199.644531 112.71875 200.667969 113.132812 C 201.328125 112.585938 202.199219 111.84375 202.84375 111.273438 C 202.40625 110.214844 201.933594 109.207031 201.425781 108.257812 C 200.464844 107.894531 199.179688 107.417969 198.214844 107.074219 C 197.617188 107.574219 196.820312 108.234375 196.21875 108.726562 C 196.578125 109.6875 196.925781 110.707031 197.253906 111.777344 " fill-opacity="1" fill-rule="nonzero"/><g clip-path="url(#ffedc2ff53)"><path fill="#274082" d="M 208.414062 103.152344 C 209.410156 103.535156 210.738281 104.046875 211.734375 104.433594 C 212.511719 103.835938 213.550781 103.039062 214.324219 102.4375 C 214.027344 101.367188 213.71875 100.34375 213.394531 99.375 C 212.457031 99.039062 211.210938 98.597656 210.273438 98.265625 C 209.558594 98.800781 208.605469 99.511719 207.886719 100.039062 C 208.058594 101.027344 208.238281 102.066406 208.414062 103.152344 " fill-opacity="1" fill-rule="nonzero"/></g><path fill="#69a2cd" d="M 182.496094 113.722656 C 183.402344 114.09375 184.617188 114.589844 185.527344 114.960938 C 186.363281 114.328125 187.480469 113.484375 188.320312 112.855469 C 188.171875 111.765625 188.03125 110.722656 187.894531 109.730469 C 187.050781 109.410156 185.921875 108.984375 185.078125 108.660156 C 184.292969 109.222656 183.25 109.972656 182.46875 110.535156 C 182.453125 111.550781 182.460938 112.613281 182.496094 113.722656 " fill-opacity="1" fill-rule="nonzero"/><path fill="#4186b9" d="M 175.667969 114.910156 C 176.4375 115.285156 177.464844 115.78125 178.242188 116.144531 C 179.078125 115.484375 180.195312 114.605469 181.039062 113.957031 C 181.039062 112.84375 181.0625 111.773438 181.113281 110.757812 C 180.402344 110.441406 179.460938 110.015625 178.757812 109.683594 C 177.957031 110.269531 176.898438 111.050781 176.105469 111.644531 C 175.917969 112.6875 175.773438 113.777344 175.667969 114.910156 " fill-opacity="1" fill-rule="nonzero"/><path fill="#274082" d="M 169.832031 116.144531 C 170.40625 116.53125 171.183594 117.039062 171.777344 117.402344 C 172.554688 116.722656 173.589844 115.824219 174.378906 115.160156 C 174.507812 114.023438 174.683594 112.929688 174.90625 111.878906 C 174.375 111.558594 173.667969 111.121094 173.152344 110.777344 C 172.402344 111.375 171.40625 112.179688 170.667969 112.792969 C 170.332031 113.867188 170.050781 114.988281 169.832031 116.144531 " fill-opacity="1" fill-rule="nonzero"/><path fill="#274082" d="M 165.449219 117.339844 C 165.78125 117.753906 166.246094 118.285156 166.621094 118.65625 C 167.265625 117.96875 168.132812 117.058594 168.800781 116.394531 C 169.042969 115.230469 169.34375 114.109375 169.707031 113.027344 C 169.382812 112.691406 168.960938 112.234375 168.675781 111.867188 C 168.039062 112.46875 167.199219 113.28125 166.585938 113.910156 C 166.140625 115.015625 165.757812 116.160156 165.449219 117.339844 " fill-opacity="1" fill-rule="nonzero"/><path fill="#69a2cd" d="M 163.175781 118.335938 C 163.195312 118.777344 163.257812 119.359375 163.351562 119.789062 C 163.765625 119.109375 164.339844 118.214844 164.796875 117.566406 C 165.117188 116.382812 165.515625 115.230469 165.976562 114.121094 C 165.90625 113.742188 165.835938 113.230469 165.839844 112.847656 C 165.410156 113.433594 164.851562 114.222656 164.464844 114.835938 C 163.960938 115.96875 163.527344 117.136719 163.175781 118.335938 " fill-opacity="1" fill-rule="nonzero"/><path fill="#3a6ab9" d="M 210.269531 119.351562 C 211.265625 119.847656 212.589844 120.511719 213.574219 121.019531 C 214.425781 120.363281 215.550781 119.476562 216.386719 118.804688 C 216.320312 118.144531 216.242188 117.480469 216.152344 116.816406 C 216.058594 116.152344 215.957031 115.496094 215.839844 114.847656 C 214.84375 114.335938 213.507812 113.667969 212.496094 113.183594 C 211.667969 113.847656 210.558594 114.734375 209.726562 115.398438 C 209.832031 116.046875 209.929688 116.703125 210.019531 117.367188 C 210.113281 118.03125 210.195312 118.695312 210.269531 119.351562 " fill-opacity="1" fill-rule="nonzero"/><path fill="#3a6ab9" d="M 183.773438 127.121094 C 184.808594 127.566406 186.1875 128.152344 187.222656 128.59375 C 188.097656 127.863281 189.265625 126.898438 190.144531 126.175781 C 190.054688 125.519531 189.964844 124.859375 189.871094 124.195312 C 189.78125 123.527344 189.691406 122.871094 189.601562 122.222656 C 188.566406 121.78125 187.183594 121.195312 186.144531 120.757812 C 185.265625 121.476562 184.097656 122.4375 183.230469 123.167969 C 183.308594 123.820312 183.394531 124.476562 183.484375 125.140625 C 183.578125 125.804688 183.671875 126.46875 183.773438 127.121094 " fill-opacity="1" fill-rule="nonzero"/><path fill="#69a2cd" d="M 176.308594 128.421875 C 177.273438 128.855469 178.558594 129.421875 179.527344 129.84375 C 180.316406 129.097656 181.378906 128.113281 182.183594 127.378906 C 182.082031 126.726562 181.984375 126.066406 181.890625 125.402344 C 181.800781 124.734375 181.714844 124.078125 181.640625 123.425781 C 180.679688 123.003906 179.402344 122.4375 178.449219 122.007812 C 177.636719 122.738281 176.558594 123.71875 175.765625 124.46875 C 175.832031 125.121094 175.910156 125.78125 176.003906 126.445312 C 176.09375 127.109375 176.195312 127.769531 176.308594 128.421875 " fill-opacity="1" fill-rule="nonzero"/><path fill="#689ac5" d="M 169.921875 129.773438 C 170.753906 130.199219 171.859375 130.765625 172.699219 131.171875 C 173.351562 130.421875 174.226562 129.429688 174.898438 128.699219 C 174.785156 128.042969 174.679688 127.386719 174.589844 126.722656 C 174.496094 126.054688 174.417969 125.398438 174.355469 124.742188 C 173.53125 124.328125 172.4375 123.769531 171.621094 123.335938 C 170.9375 124.070312 170.035156 125.058594 169.378906 125.816406 C 169.4375 126.472656 169.511719 127.132812 169.601562 127.796875 C 169.691406 128.460938 169.800781 129.121094 169.921875 129.773438 " fill-opacity="1" fill-rule="nonzero"/><path fill="#689ac5" d="M 165.132812 131.082031 C 165.757812 131.523438 166.601562 132.09375 167.25 132.5 C 167.695312 131.753906 168.308594 130.765625 168.796875 130.046875 C 168.671875 129.394531 168.5625 128.738281 168.472656 128.070312 C 168.378906 127.40625 168.308594 126.746094 168.253906 126.089844 C 167.621094 125.675781 166.785156 125.109375 166.171875 124.664062 C 165.679688 125.390625 165.035156 126.371094 164.589844 127.125 C 164.636719 127.785156 164.707031 128.445312 164.800781 129.109375 C 164.890625 129.777344 165.003906 130.433594 165.132812 131.082031 " fill-opacity="1" fill-rule="nonzero"/><path fill="#274082" d="M 162.644531 132.171875 C 162.96875 132.644531 163.421875 133.261719 163.796875 133.695312 C 163.953125 132.976562 164.191406 132.027344 164.417969 131.328125 C 164.289062 130.679688 164.175781 130.023438 164.082031 129.359375 C 163.992188 128.695312 163.921875 128.03125 163.875 127.375 C 163.507812 126.9375 163.035156 126.335938 162.71875 125.859375 C 162.503906 126.558594 162.246094 127.5 162.101562 128.214844 C 162.144531 128.875 162.214844 129.539062 162.304688 130.203125 C 162.398438 130.867188 162.511719 131.523438 162.644531 132.171875 " fill-opacity="1" fill-rule="nonzero"/><g clip-path="url(#8e5ccba7f0)"><path fill="#69a2cd" d="M 211.464844 134.207031 C 212.199219 134.628906 213.167969 135.199219 213.886719 135.640625 C 214.722656 135.074219 215.839844 134.3125 216.675781 133.738281 C 216.890625 132.585938 217.0625 131.398438 217.1875 130.179688 C 216.398438 129.683594 215.339844 129.035156 214.53125 128.566406 C 213.652344 129.203125 212.476562 130.046875 211.59375 130.683594 C 211.582031 131.890625 211.539062 133.066406 211.464844 134.207031 " fill-opacity="1" fill-rule="nonzero"/></g><path fill="#689ac5" d="M 203.585938 136.761719 C 204.433594 137.148438 205.558594 137.671875 206.398438 138.074219 C 207.207031 137.476562 208.28125 136.683594 209.09375 136.09375 C 209.128906 134.960938 209.136719 133.785156 209.121094 132.582031 C 208.203125 132.132812 206.976562 131.539062 206.050781 131.101562 C 205.195312 131.757812 204.058594 132.636719 203.210938 133.296875 C 203.347656 134.488281 203.472656 135.644531 203.585938 136.761719 " fill-opacity="1" fill-rule="nonzero"/><path fill="#3a6ab9" d="M 186.554688 140.242188 C 187.464844 140.601562 188.679688 141.082031 189.589844 141.449219 C 190.300781 140.839844 191.257812 140.03125 191.980469 139.4375 C 191.828125 138.324219 191.667969 137.171875 191.503906 135.988281 C 190.523438 135.574219 189.214844 135.023438 188.230469 134.617188 C 187.460938 135.28125 186.4375 136.171875 185.675781 136.851562 C 185.957031 138.019531 186.25 139.152344 186.554688 140.242188 " fill-opacity="1" fill-rule="nonzero"/><path fill="#3881b6" d="M 180.195312 141.351562 C 181.117188 141.6875 182.34375 142.140625 183.269531 142.476562 C 183.839844 141.863281 184.609375 141.054688 185.199219 140.460938 C 184.859375 139.378906 184.53125 138.25 184.222656 137.085938 C 183.238281 136.703125 181.925781 136.1875 180.945312 135.800781 C 180.308594 136.464844 179.464844 137.355469 178.851562 138.039062 C 179.269531 139.1875 179.714844 140.289062 180.195312 141.351562 " fill-opacity="1" fill-rule="nonzero"/><path fill="#3881b6" d="M 174.753906 142.5 C 175.625 142.824219 176.789062 143.253906 177.660156 143.566406 C 178.046875 142.960938 178.574219 142.167969 178.992188 141.585938 C 178.480469 140.53125 178.003906 139.429688 177.5625 138.292969 C 176.636719 137.925781 175.40625 137.433594 174.484375 137.058594 C 174.027344 137.710938 173.429688 138.59375 173.011719 139.273438 C 173.546875 140.394531 174.128906 141.472656 174.753906 142.5 " fill-opacity="1" fill-rule="nonzero"/><path fill="#69a2cd" d="M 168.550781 144.542969 C 169.082031 144.886719 169.800781 145.328125 170.351562 145.636719 C 170.234375 145.101562 170.105469 144.375 170.0625 143.828125 C 169.3125 142.835938 168.613281 141.789062 167.980469 140.699219 C 167.394531 140.335938 166.617188 139.84375 166.058594 139.445312 C 166.117188 140.054688 166.222656 140.867188 166.355469 141.46875 C 167.023438 142.542969 167.757812 143.570312 168.550781 144.542969 " fill-opacity="1" fill-rule="nonzero"/><path fill="#3881b6" d="M 169.53125 146.371094 C 169.164062 145.886719 168.691406 145.222656 168.378906 144.703125 C 167.578125 143.734375 166.839844 142.710938 166.167969 141.636719 C 165.832031 141.25 165.398438 140.71875 165.109375 140.292969 L 165.339844 140.726562 L 165.40625 140.84375 C 166.964844 143.363281 166.964844 143.363281 167.898438 144.535156 L 169.007812 145.847656 L 169.53125 146.371094 " fill-opacity="1" fill-rule="nonzero"/><path fill="#69a2cd" d="M 182.941406 151.445312 C 183.664062 151.628906 184.628906 151.871094 185.351562 152.050781 C 185.375 151.699219 185.433594 151.230469 185.515625 150.890625 C 184.835938 150.246094 184.171875 149.535156 183.527344 148.761719 C 182.714844 148.507812 181.632812 148.171875 180.824219 147.917969 C 180.679688 148.367188 180.503906 148.972656 180.414062 149.433594 C 181.226562 150.167969 182.070312 150.84375 182.941406 151.445312 " fill-opacity="1" fill-rule="nonzero"/><path fill="#689ac5" d="M 180.460938 152.125 C 181.171875 152.289062 182.117188 152.507812 182.828125 152.664062 C 182.664062 152.351562 182.460938 151.925781 182.355469 151.585938 C 181.445312 150.996094 180.5625 150.332031 179.710938 149.605469 C 178.929688 149.375 177.890625 149.0625 177.113281 148.824219 C 177.175781 149.257812 177.285156 149.835938 177.417969 150.253906 C 178.394531 150.945312 179.410156 151.570312 180.460938 152.125 " fill-opacity="1" fill-rule="nonzero"/><path fill="#69a2cd" d="M 179.171875 152.6875 C 179.789062 152.855469 180.609375 153.070312 181.230469 153.21875 C 180.875 152.945312 180.410156 152.566406 180.089844 152.25 C 179.015625 151.707031 177.972656 151.089844 176.96875 150.40625 C 176.304688 150.183594 175.421875 149.878906 174.765625 149.636719 C 175.074219 150.042969 175.503906 150.570312 175.859375 150.933594 C 176.921875 151.589844 178.03125 152.175781 179.171875 152.6875 " fill-opacity="1" fill-rule="nonzero"/><path fill="#689ac5" d="M 179.140625 153.085938 C 179.625 153.261719 180.273438 153.484375 180.765625 153.632812 C 180.25 153.390625 179.566406 153.058594 179.066406 152.78125 C 177.917969 152.277344 176.800781 151.699219 175.730469 151.050781 C 175.230469 150.820312 174.570312 150.503906 174.082031 150.246094 C 174.558594 150.585938 175.203125 151.035156 175.699219 151.34375 L 176.441406 151.769531 C 177.316406 152.253906 178.214844 152.695312 179.140625 153.085938 " fill-opacity="1" fill-rule="nonzero"/><g fill="#00367d" fill-opacity="1"><g transform="translate(50.145858, 245.759295)"><g><path d="M 14.265625 0.3125 C 19.875 0.3125 24.875 -2.78125 26.296875 -8.015625 C 26.4375 -8.546875 26.140625 -8.859375 25.609375 -8.859375 L 21.0625 -8.859375 C 20.640625 -8.859375 20.375 -8.65625 20.1875 -8.234375 C 19.3125 -6.0625 16.984375 -4.890625 14.265625 -4.890625 C 10.078125 -4.890625 6.671875 -7.859375 6.671875 -13.046875 C 6.671875 -18.203125 10.078125 -21.171875 14.265625 -21.171875 C 16.9375 -21.171875 19.265625 -20 20.1875 -17.859375 C 20.375 -17.4375 20.640625 -17.25 21.0625 -17.25 L 25.5625 -17.25 C 26.09375 -17.25 26.40625 -17.546875 26.25 -18.09375 C 24.796875 -23.234375 20 -26.359375 14.3125 -26.359375 C 7.0625 -26.359375 0.953125 -21.25 0.953125 -13.046875 C 0.953125 -4.953125 6.90625 0.3125 14.265625 0.3125 Z M 14.265625 0.3125 "/></g></g></g><g fill="#00367d" fill-opacity="1"><g transform="translate(77.342947, 245.759295)"><g><path d="M 10.84375 -17.4375 C 5.1875 -17.4375 1.03125 -13.890625 1.03125 -8.390625 C 1.03125 -2.828125 5.03125 0.609375 10.84375 0.609375 C 15.03125 0.609375 18.359375 -1.21875 19.6875 -5.03125 C 19.875 -5.578125 19.578125 -5.921875 19.046875 -5.921875 L 14.796875 -5.921875 C 14.390625 -5.921875 14.15625 -5.6875 13.96875 -5.265625 C 13.5 -4.234375 12.40625 -3.46875 10.71875 -3.46875 C 8.578125 -3.46875 7.25 -5 7.09375 -7.328125 L 19.390625 -7.328125 C 19.875 -7.328125 20.140625 -7.59375 20.140625 -8.09375 L 20.140625 -8.78125 C 20.140625 -14.34375 15.953125 -17.4375 10.84375 -17.4375 Z M 7.171875 -10.421875 C 7.5 -12.25 8.53125 -13.546875 10.640625 -13.546875 C 12.671875 -13.546875 13.96875 -12.25 14.078125 -10.421875 Z M 7.171875 -10.421875 "/></g></g></g><g fill="#00367d" fill-opacity="1"><g transform="translate(98.589485, 245.759295)"><g><path d="M 13.046875 -17.0625 C 12.671875 -17.125 12.203125 -17.203125 11.796875 -17.203125 C 9.765625 -17.203125 7.875 -16.296875 6.671875 -13.84375 C 5.765625 -15.59375 4.125 -16.734375 1.828125 -17.203125 L 1.828125 -0.765625 C 1.828125 -0.265625 2.09375 0 2.59375 0 L 6.796875 0 C 7.28125 0 7.5625 -0.265625 7.5625 -0.765625 L 7.5625 -8.46875 C 7.78125 -10.796875 8.96875 -12.015625 11.03125 -12.015625 C 11.5625 -12.015625 12.140625 -11.9375 12.78125 -11.796875 C 13.3125 -11.640625 13.65625 -11.859375 13.65625 -12.40625 L 13.65625 -16.171875 C 13.65625 -16.59375 13.46875 -16.9375 13.046875 -17.0625 Z M 13.046875 -17.0625 "/></g></g></g><g fill="#00367d" fill-opacity="1"><g transform="translate(112.893706, 245.759295)"><g><path d="M 9.390625 -16.828125 L 9.390625 -24.078125 C 5.6875 -23.3125 3.65625 -20.75 3.65625 -16.828125 L 1.21875 -16.828125 C 0.71875 -16.828125 0.453125 -16.5625 0.453125 -16.0625 L 0.453125 -13.15625 C 0.453125 -12.671875 0.71875 -12.40625 1.21875 -12.40625 L 3.65625 -12.40625 L 3.65625 -0.765625 C 3.65625 -0.265625 3.9375 0 4.421875 0 L 8.625 0 C 9.125 0 9.390625 -0.265625 9.390625 -0.765625 L 9.390625 -12.40625 L 11.859375 -12.40625 C 12.359375 -12.40625 12.625 -12.671875 12.625 -13.15625 L 12.625 -16.0625 C 12.625 -16.5625 12.359375 -16.828125 11.859375 -16.828125 Z M 9.390625 -16.828125 "/></g></g></g><g fill="#00367d" fill-opacity="1"><g transform="translate(125.977301, 245.759295)"><g><path d="M 4.421875 -20.140625 C 6.484375 -20.140625 8.625 -21.171875 8.625 -23.234375 C 8.625 -25.265625 6.484375 -26.328125 4.421875 -26.328125 C 2.328125 -26.328125 0.234375 -25.265625 0.234375 -23.234375 C 0.234375 -21.171875 2.328125 -20.140625 4.421875 -20.140625 Z M 6.796875 0 C 7.28125 0 7.5625 -0.265625 7.5625 -0.765625 L 7.5625 -9.953125 C 7.5625 -13.890625 5.53125 -16.4375 1.828125 -17.203125 L 1.828125 -0.765625 C 1.828125 -0.265625 2.09375 0 2.59375 0 Z M 6.796875 0 "/></g></g></g><g fill="#00367d" fill-opacity="1"><g transform="translate(135.132001, 245.759295)"><g><path d="M 11.9375 -28.609375 C 9 -28.609375 3.859375 -26.703125 3.859375 -19.234375 L 3.859375 -16.828125 L 1.40625 -16.828125 C 0.921875 -16.828125 0.65625 -16.5625 0.65625 -16.0625 L 0.65625 -13.15625 C 0.65625 -12.671875 0.921875 -12.40625 1.40625 -12.40625 L 3.859375 -12.40625 L 3.859375 -0.765625 C 3.859375 -0.265625 4.125 0 4.609375 0 L 8.8125 0 C 9.3125 0 9.578125 -0.265625 9.578125 -0.765625 L 9.578125 -12.40625 L 12.25 -12.40625 C 12.75 -12.40625 13.015625 -12.671875 13.015625 -13.15625 L 13.015625 -16.0625 C 13.015625 -16.5625 12.75 -16.828125 12.25 -16.828125 L 9.578125 -16.828125 L 9.578125 -19.234375 C 9.578125 -22.625 10.796875 -23.390625 12.75 -23.390625 C 13.234375 -23.390625 13.5 -23.65625 13.5 -24.15625 L 13.5 -27.859375 C 13.5 -28.34375 13.234375 -28.609375 12.75 -28.609375 Z M 11.9375 -28.609375 "/></g></g></g><g fill="#00367d" fill-opacity="1"><g transform="translate(148.406323, 245.759295)"><g><path d="M 4.421875 -20.140625 C 6.484375 -20.140625 8.625 -21.171875 8.625 -23.234375 C 8.625 -25.265625 6.484375 -26.328125 4.421875 -26.328125 C 2.328125 -26.328125 0.234375 -25.265625 0.234375 -23.234375 C 0.234375 -21.171875 2.328125 -20.140625 4.421875 -20.140625 Z M 6.796875 0 C 7.28125 0 7.5625 -0.265625 7.5625 -0.765625 L 7.5625 -9.953125 C 7.5625 -13.890625 5.53125 -16.4375 1.828125 -17.203125 L 1.828125 -0.765625 C 1.828125 -0.265625 2.09375 0 2.59375 0 Z M 6.796875 0 "/></g></g></g><g fill="#00367d" fill-opacity="1"><g transform="translate(157.561024, 245.759295)"><g><path d="M 10.84375 -17.4375 C 5.1875 -17.4375 1.03125 -13.890625 1.03125 -8.390625 C 1.03125 -2.828125 5.03125 0.609375 10.84375 0.609375 C 15.03125 0.609375 18.359375 -1.21875 19.6875 -5.03125 C 19.875 -5.578125 19.578125 -5.921875 19.046875 -5.921875 L 14.796875 -5.921875 C 14.390625 -5.921875 14.15625 -5.6875 13.96875 -5.265625 C 13.5 -4.234375 12.40625 -3.46875 10.71875 -3.46875 C 8.578125 -3.46875 7.25 -5 7.09375 -7.328125 L 19.390625 -7.328125 C 19.875 -7.328125 20.140625 -7.59375 20.140625 -8.09375 L 20.140625 -8.78125 C 20.140625 -14.34375 15.953125 -17.4375 10.84375 -17.4375 Z M 7.171875 -10.421875 C 7.5 -12.25 8.53125 -13.546875 10.640625 -13.546875 C 12.671875 -13.546875 13.96875 -12.25 14.078125 -10.421875 Z M 7.171875 -10.421875 "/></g></g></g><g fill="#00367d" fill-opacity="1"><g transform="translate(178.807563, 245.759295)"><g><path d="M 15.265625 -15.21875 C 13.8125 -16.640625 11.828125 -17.4375 9.5 -17.4375 C 4.546875 -17.4375 1.109375 -13.734375 1.109375 -8.4375 C 1.109375 -3.09375 4.546875 0.609375 9.5 0.609375 C 12.28125 0.609375 14.59375 -0.546875 16.078125 -2.53125 C 17 -0.625 18.65625 0.375 20.984375 0.375 L 20.984375 -21.375 C 20.984375 -25.296875 18.96875 -27.859375 15.265625 -28.609375 Z M 11.25 -3.96875 C 8.921875 -3.96875 7.25 -5.796875 7.25 -8.390625 C 7.25 -10.984375 8.921875 -12.828125 11.25 -12.828125 C 13.578125 -12.828125 15.265625 -10.984375 15.265625 -8.390625 C 15.265625 -5.796875 13.578125 -3.96875 11.25 -3.96875 Z M 11.25 -3.96875 "/></g></g></g><g fill="#00367d" fill-opacity="1"><g transform="translate(201.656171, 245.759295)"><g/></g></g><g fill="#00367d" fill-opacity="1"><g transform="translate(211.573769, 245.759295)"><g><path d="M 27.9375 -13.84375 L 12.96875 -13.84375 C 13.734375 -11.140625 16.171875 -9.15625 20.5625 -9.15625 L 20.921875 -9.15625 C 20.375 -6.640625 17.921875 -4.890625 14.578125 -4.890625 C 9.875 -4.890625 6.75 -7.859375 6.75 -12.9375 C 6.75 -18.234375 10.15625 -21.171875 14.34375 -21.171875 C 17.015625 -21.171875 19.34375 -20 20.265625 -17.859375 C 20.453125 -17.4375 20.71875 -17.25 21.140625 -17.25 L 25.640625 -17.25 C 26.171875 -17.25 26.484375 -17.546875 26.328125 -18.09375 C 24.875 -23.234375 20.0625 -26.359375 14.390625 -26.359375 C 7.140625 -26.359375 1.03125 -21.25 1.03125 -13.015625 C 1.03125 -4.65625 6.875 0.3125 14.46875 0.3125 C 20.125 0.3125 25.265625 -2.703125 26.75 -9.15625 L 27.9375 -9.15625 C 28.421875 -9.15625 28.6875 -9.421875 28.6875 -9.921875 L 28.6875 -13.09375 C 28.6875 -13.578125 28.421875 -13.84375 27.9375 -13.84375 Z M 27.9375 -13.84375 "/></g></g></g><g fill="#00367d" fill-opacity="1"><g transform="translate(240.792525, 245.759295)"><g><path d="M 6.796875 0 C 7.28125 0 7.5625 -0.265625 7.5625 -0.765625 L 7.5625 -21.375 C 7.5625 -25.296875 5.53125 -27.859375 1.828125 -28.609375 L 1.828125 -0.765625 C 1.828125 -0.265625 2.09375 0 2.59375 0 Z M 6.796875 0 "/></g></g></g><g fill="#00367d" fill-opacity="1"><g transform="translate(250.214251, 245.759295)"><g><path d="M 10.6875 0.609375 C 16.671875 0.609375 20.265625 -3.09375 20.265625 -8.390625 C 20.265625 -13.65625 16.640625 -17.4375 10.6875 -17.4375 C 4.6875 -17.4375 1.0625 -13.65625 1.0625 -8.390625 C 1.0625 -3.125 4.65625 0.609375 10.6875 0.609375 Z M 10.6875 -3.859375 C 8.125 -3.859375 6.75 -5.84375 6.75 -8.359375 C 6.75 -10.90625 8.171875 -12.96875 10.6875 -12.96875 C 13.203125 -12.96875 14.578125 -10.953125 14.578125 -8.359375 C 14.578125 -5.796875 13.203125 -3.859375 10.6875 -3.859375 Z M 10.6875 -3.859375 "/></g></g></g><g fill="#00367d" fill-opacity="1"><g transform="translate(271.575219, 245.759295)"><g><path d="M 13.3125 -17.4375 C 10.984375 -17.4375 9 -16.640625 7.5625 -15.21875 L 7.5625 -21.375 C 7.5625 -25.296875 5.53125 -27.859375 1.828125 -28.609375 L 1.828125 0.375 C 4.15625 0.375 5.8125 -0.625 6.734375 -2.53125 C 8.21875 -0.546875 10.53125 0.609375 13.3125 0.609375 C 18.28125 0.609375 21.703125 -3.09375 21.703125 -8.4375 C 21.703125 -13.734375 18.28125 -17.4375 13.3125 -17.4375 Z M 11.5625 -3.96875 C 9.234375 -3.96875 7.5625 -5.796875 7.5625 -8.390625 C 7.5625 -10.984375 9.234375 -12.828125 11.5625 -12.828125 C 13.890625 -12.828125 15.5625 -10.984375 15.5625 -8.390625 C 15.5625 -5.796875 13.890625 -3.96875 11.5625 -3.96875 Z M 11.5625 -3.96875 "/></g></g></g><g fill="#00367d" fill-opacity="1"><g transform="translate(294.385696, 245.759295)"><g><path d="M 16.234375 -14.09375 C 14.75 -16.171875 12.375 -17.4375 9.5 -17.4375 C 4.546875 -17.4375 1.109375 -13.734375 1.109375 -8.4375 C 1.109375 -3.09375 4.546875 0.609375 9.5 0.609375 C 12.375 0.609375 14.75 -0.65625 16.234375 -2.75 C 17.171875 -0.875 18.765625 0.15625 20.984375 0.375 L 20.984375 -17.203125 C 18.765625 -16.984375 17.171875 -15.953125 16.234375 -14.09375 Z M 11.25 -3.96875 C 8.921875 -3.96875 7.25 -5.796875 7.25 -8.390625 C 7.25 -10.984375 8.921875 -12.828125 11.25 -12.828125 C 13.578125 -12.828125 15.265625 -10.984375 15.265625 -8.390625 C 15.265625 -5.796875 13.578125 -3.96875 11.25 -3.96875 Z M 11.25 -3.96875 "/></g></g></g><g fill="#00367d" fill-opacity="1"><g transform="translate(317.234304, 245.759295)"><g><path d="M 6.796875 0 C 7.28125 0 7.5625 -0.265625 7.5625 -0.765625 L 7.5625 -21.375 C 7.5625 -25.296875 5.53125 -27.859375 1.828125 -28.609375 L 1.828125 -0.765625 C 1.828125 -0.265625 2.09375 0 2.59375 0 Z M 6.796875 0 "/></g></g></g><g fill="#00367d" fill-opacity="1"><g transform="translate(125.112066, 279.134571)"><g><path d="M 3.078125 -1.40625 L 3.078125 -5.359375 L 7.8125 -5.359375 L 7.8125 -6.71875 L 3.078125 -6.71875 L 3.078125 -10.34375 L 8.25 -10.34375 L 8.25 -11.75 L 1.59375 -11.75 L 1.59375 0 L 8.4375 0 L 8.4375 -1.40625 Z M 3.078125 -1.40625 "/></g></g></g><g fill="#00367d" fill-opacity="1"><g transform="translate(137.758838, 279.134571)"><g><path d="M 9.53125 -11.75 L 9.53125 -2.6875 L 2.9375 -11.75 L 1.59375 -11.75 L 1.59375 0 L 3.046875 0 L 3.046875 -9.171875 L 9.71875 0 L 10.96875 0 L 10.96875 -11.75 Z M 9.53125 -11.75 "/></g></g></g><g fill="#00367d" fill-opacity="1"><g transform="translate(153.697034, 279.134571)"><g><path d="M 8.96875 -11.75 L 0.359375 -11.75 L 0.359375 -10.359375 L 3.9375 -10.359375 L 3.9375 0 L 5.390625 0 L 5.390625 -10.359375 L 8.96875 -10.359375 Z M 8.96875 -11.75 "/></g></g></g><g fill="#00367d" fill-opacity="1"><g transform="translate(166.394181, 279.134571)"><g><path d="M 3.078125 -1.40625 L 3.078125 -5.359375 L 7.8125 -5.359375 L 7.8125 -6.71875 L 3.078125 -6.71875 L 3.078125 -10.34375 L 8.25 -10.34375 L 8.25 -11.75 L 1.59375 -11.75 L 1.59375 0 L 8.4375 0 L 8.4375 -1.40625 Z M 3.078125 -1.40625 "/></g></g></g><g fill="#00367d" fill-opacity="1"><g transform="translate(179.040955, 279.134571)"><g><path d="M 8.453125 0 L 10.109375 0 L 7.296875 -4.765625 C 8.828125 -5.203125 9.890625 -6.5 9.890625 -8.15625 C 9.890625 -10.25 8.265625 -11.75 6.0625 -11.75 L 1.59375 -11.75 L 1.59375 0 L 3.078125 0 L 3.078125 -4.578125 L 5.75 -4.578125 Z M 3.078125 -10.34375 L 5.984375 -10.34375 C 7.421875 -10.34375 8.375 -9.421875 8.375 -8.15625 C 8.375 -6.90625 7.421875 -6 5.984375 -6 L 3.078125 -6 Z M 3.078125 -10.34375 "/></g></g></g><g fill="#00367d" fill-opacity="1"><g transform="translate(193.215892, 279.134571)"><g><path d="M 5.8125 -11.75 L 1.59375 -11.75 L 1.59375 0 L 3.078125 0 L 3.078125 -4.21875 L 5.8125 -4.21875 C 8.046875 -4.21875 9.703125 -5.828125 9.703125 -7.984375 C 9.703125 -10.140625 8.03125 -11.75 5.8125 -11.75 Z M 5.75 -5.640625 L 3.078125 -5.640625 L 3.078125 -10.328125 L 5.75 -10.328125 C 7.171875 -10.328125 8.21875 -9.328125 8.21875 -7.984375 C 8.21875 -6.640625 7.171875 -5.640625 5.75 -5.640625 Z M 5.75 -5.640625 "/></g></g></g><g fill="#00367d" fill-opacity="1"><g transform="translate(206.819861, 279.134571)"><g><path d="M 8.453125 0 L 10.109375 0 L 7.296875 -4.765625 C 8.828125 -5.203125 9.890625 -6.5 9.890625 -8.15625 C 9.890625 -10.25 8.265625 -11.75 6.0625 -11.75 L 1.59375 -11.75 L 1.59375 0 L 3.078125 0 L 3.078125 -4.578125 L 5.75 -4.578125 Z M 3.078125 -10.34375 L 5.984375 -10.34375 C 7.421875 -10.34375 8.375 -9.421875 8.375 -8.15625 C 8.375 -6.90625 7.421875 -6 5.984375 -6 L 3.078125 -6 Z M 3.078125 -10.34375 "/></g></g></g><g fill="#00367d" fill-opacity="1"><g transform="translate(220.994798, 279.134571)"><g><path d="M 1.59375 0 L 3.078125 0 L 3.078125 -11.75 L 1.59375 -11.75 Z M 1.59375 0 "/></g></g></g><g fill="#00367d" fill-opacity="1"><g transform="translate(229.040298, 279.134571)"><g><path d="M 5.109375 0.15625 C 7.4375 0.15625 9.25 -1.109375 9.25 -3.328125 C 9.25 -5.78125 7.171875 -6.265625 5.328125 -6.71875 C 3.8125 -7.078125 2.453125 -7.40625 2.453125 -8.6875 C 2.453125 -9.8125 3.53125 -10.484375 4.953125 -10.484375 C 6.375 -10.484375 7.453125 -9.71875 7.453125 -8.421875 L 8.921875 -8.421875 C 8.921875 -10.546875 7.421875 -11.890625 4.984375 -11.890625 C 2.546875 -11.890625 0.984375 -10.671875 0.984375 -8.640625 C 0.984375 -6.28125 2.984375 -5.796875 4.796875 -5.375 C 6.328125 -5 7.71875 -4.6875 7.71875 -3.3125 C 7.71875 -2.0625 6.5625 -1.296875 5.09375 -1.296875 C 3.453125 -1.296875 2.265625 -2.15625 2.265625 -3.609375 L 0.75 -3.609375 C 0.75 -1.296875 2.515625 0.15625 5.109375 0.15625 Z M 5.109375 0.15625 "/></g></g></g><g fill="#00367d" fill-opacity="1"><g transform="translate(242.425959, 279.134571)"><g><path d="M 3.078125 -1.40625 L 3.078125 -5.359375 L 7.8125 -5.359375 L 7.8125 -6.71875 L 3.078125 -6.71875 L 3.078125 -10.34375 L 8.25 -10.34375 L 8.25 -11.75 L 1.59375 -11.75 L 1.59375 0 L 8.4375 0 L 8.4375 -1.40625 Z M 3.078125 -1.40625 "/></g></g></g><g clip-path="url(#58203487a4)"><path fill="#00c2cb" d="M 215.246094 175.566406 C 218.882812 169.207031 220.960938 161.847656 220.960938 154 C 220.960938 151.40625 220.734375 148.867188 220.300781 146.398438 C 218.539062 156.1875 213.335938 164.78125 205.984375 170.875 C 201.730469 174.402344 195.398438 173.6875 192.070312 169.277344 L 185.859375 161.046875 C 184.824219 159.675781 183.207031 158.871094 181.492188 158.871094 L 157.824219 158.871094 C 157.816406 158.871094 157.8125 158.875 157.808594 158.875 C 156.191406 158.882812 155.144531 160.589844 155.871094 162.035156 L 156.8125 163.910156 C 158.566406 167.398438 162.015625 169.71875 165.90625 170.027344 L 167.308594 170.136719 L 173.445312 170.621094 C 175.183594 170.757812 176.75 171.71875 177.660156 173.203125 L 180.441406 177.757812 L 182 180.308594 L 190.734375 194.589844 C 190.890625 194.84375 191.082031 195.066406 191.304688 195.253906 C 191.945312 195.789062 192.8125 196.011719 193.652344 195.804688 C 193.660156 195.800781 193.664062 195.800781 193.671875 195.796875 C 216.320312 190.207031 233.769531 171.421875 237.390625 148.0625 C 234.210938 160.042969 226.046875 170 215.246094 175.566406 " fill-opacity="1" fill-rule="nonzero"/></g><g clip-path="url(#dc4571ab89)"><path fill="#003479" d="M 175.988281 174.226562 C 175.410156 173.277344 174.402344 172.65625 173.292969 172.570312 L 165.75 171.976562 C 161.207031 171.617188 157.109375 168.867188 155.066406 164.789062 L 154.171875 163.011719 C 153.539062 161.75 153.523438 160.238281 154.222656 159.007812 C 154.945312 157.742188 156.25 156.960938 157.695312 156.917969 L 157.824219 156.914062 L 165.402344 156.914062 C 162.929688 153.015625 158.480469 150.820312 153.871094 151.253906 L 145.996094 151.988281 C 142.621094 152.300781 139.589844 149.976562 138.96875 146.648438 C 138.511719 144.179688 138.269531 141.632812 138.269531 139.03125 C 138.269531 125.835938 144.449219 114.089844 154.070312 106.519531 C 144.539062 112.792969 137.121094 122.019531 133.117188 132.894531 C 136.722656 106.695312 159.199219 86.511719 186.390625 86.511719 C 203.226562 86.511719 218.25 94.246094 228.113281 106.351562 C 217.632812 90.832031 199.898438 80.609375 179.769531 80.558594 C 147.554688 80.476562 121.191406 106.726562 121.144531 138.941406 C 121.125 150.285156 124.34375 160.871094 129.914062 169.839844 C 130.03125 170.03125 130.148438 170.21875 130.269531 170.410156 L 138.074219 169.085938 C 141.558594 168.496094 144.429688 171.867188 143.242188 175.199219 C 143.210938 175.289062 143.191406 175.339844 143.191406 175.339844 C 148.214844 177.167969 147.367188 182.0625 147.367188 182.0625 C 151.804688 184.085938 149.976562 188.261719 149.976562 188.261719 C 151.546875 188.910156 152.097656 190.179688 152.238281 190.59375 C 152.3125 190.804688 152.390625 191.015625 152.472656 191.222656 L 155.507812 199.011719 C 156.03125 200.351562 157.632812 201.445312 159.070312 201.445312 C 160.882812 201.445312 162.136719 199.632812 161.5 197.9375 L 160.078125 194.15625 L 158.183594 189.113281 C 158.054688 188.757812 158.292969 188.375 158.675781 188.347656 C 158.925781 188.328125 159.15625 188.492188 159.253906 188.722656 L 161.742188 194.71875 L 163.585938 199.152344 C 164.21875 200.679688 165.894531 201.558594 167.484375 201.09375 C 169.386719 200.539062 170.332031 198.410156 169.472656 196.625 C 169.472656 196.621094 169.472656 196.621094 169.46875 196.617188 L 164.910156 187.203125 C 164.714844 186.796875 164.984375 186.324219 165.429688 186.28125 C 165.6875 186.253906 165.9375 186.386719 166.058594 186.617188 L 171.609375 196.953125 L 172.296875 198.238281 C 172.972656 199.5 174.460938 200.160156 175.820312 199.707031 C 176.878906 199.359375 177.585938 198.472656 177.773438 197.472656 C 177.886719 196.859375 177.808594 196.207031 177.496094 195.605469 L 173.15625 187.191406 C 172.964844 186.820312 173.105469 186.347656 173.492188 186.1875 C 173.832031 186.046875 174.214844 186.191406 174.378906 186.507812 L 179.285156 195.773438 C 179.683594 196.523438 180.273438 197.105469 180.964844 197.488281 C 182.113281 198.125 183.542969 198.214844 184.8125 197.613281 C 185.058594 197.5 185.285156 197.359375 185.496094 197.207031 C 187.234375 195.945312 187.78125 193.511719 186.613281 191.601562 L 175.988281 174.226562 " fill-opacity="1" fill-rule="nonzero"/></g><path fill="#00c2cb" d="M 133.570312 177.742188 L 139.710938 176.722656 C 141.554688 176.414062 142.800781 174.675781 142.492188 172.832031 C 142.1875 170.988281 140.445312 169.742188 138.605469 170.050781 L 132.464844 171.070312 C 130.621094 171.375 129.378906 173.113281 129.683594 174.957031 C 129.988281 176.800781 131.730469 178.046875 133.570312 177.742188 " fill-opacity="1" fill-rule="nonzero"/><path fill="#00c2cb" d="M 145.625 179.488281 C 145.320312 177.644531 143.578125 176.402344 141.738281 176.707031 L 133.355469 178.308594 C 131.515625 178.613281 130.269531 180.355469 130.574219 182.195312 C 130.878906 184.039062 132.621094 185.285156 134.464844 184.980469 L 142.84375 183.378906 C 144.6875 183.070312 145.933594 181.332031 145.625 179.488281 " fill-opacity="1" fill-rule="nonzero"/><path fill="#00c2cb" d="M 148.453125 186.449219 C 148.148438 184.605469 146.40625 183.363281 144.566406 183.667969 L 138.425781 184.683594 C 136.582031 184.992188 135.335938 186.734375 135.644531 188.574219 C 135.949219 190.417969 137.691406 191.664062 139.53125 191.355469 L 145.671875 190.339844 C 147.515625 190.03125 148.757812 188.292969 148.453125 186.449219 " fill-opacity="1" fill-rule="nonzero"/><path fill="#00c2cb" d="M 148.828125 190.195312 L 143.785156 190.996094 C 141.945312 191.300781 140.699219 193.042969 141.003906 194.886719 C 141.308594 196.726562 143.050781 197.972656 144.894531 197.667969 L 149.933594 196.867188 C 151.777344 196.558594 153.023438 194.816406 152.71875 192.976562 C 152.414062 191.132812 150.671875 189.886719 148.828125 190.195312 " fill-opacity="1" fill-rule="nonzero"/></svg>