<svg width="33" height="33" viewBox="0 0 33 33" fill="currentColor" xmlns="http://www.w3.org/2000/svg">
<g clip-path="url(#clip0_16_5248)">
<path d="M21.3813 17.875C22.4125 17.875 23.32 17.3113 23.7875 16.4588L28.71 7.535C29.2187 6.6275 28.5588 5.5 27.5138 5.5H7.16375L5.87125 2.75H1.375V5.5H4.125L9.075 15.9363L7.21875 19.2913C6.215 21.1337 7.535 23.375 9.625 23.375H26.125V20.625H9.625L11.1375 17.875H21.3813ZM8.47 8.25H25.1762L21.3813 15.125H11.7287L8.47 8.25ZM9.625 24.75C8.1125 24.75 6.88875 25.9875 6.88875 27.5C6.88875 29.0125 8.1125 30.25 9.625 30.25C11.1375 30.25 12.375 29.0125 12.375 27.5C12.375 25.9875 11.1375 24.75 9.625 24.75ZM23.375 24.75C21.8625 24.75 20.6388 25.9875 20.6388 27.5C20.6388 29.0125 21.8625 30.25 23.375 30.25C24.8875 30.25 26.125 29.0125 26.125 27.5C26.125 25.9875 24.8875 24.75 23.375 24.75Z" fill="currentColor"/>
</g>
<defs>
<clipPath id="clip0_16_5248">
<rect width="33" height="33" fill="white"/>
</clipPath>
</defs>
</svg>
